<svg viewBox="0 0 96 96" xmlns="http://www.w3.org/2000/svg" xmlns:xlink="http://www.w3.org/1999/xlink" id="Icons_WorkFromHomeDesk" overflow="hidden"><path d="M72.0061 42 72.0061 38 83.0062 38C84.1108 37.9999 85.0062 37.1045 85.0062 36L85.0062 19C85.0062 17.8955 84.1108 17.0001 83.0062 17L54.0062 17C52.9017 17.0001 52.0063 17.8955 52.0062 19L52.0062 35.0127C54.4574 35.0975 56.7686 36.1759 58.4082 38L65.0061 38 65.0061 42ZM56.0062 34 56.0062 21 81.0062 21 81.0062 34Z" stroke="#FFFFFF" stroke-width="1.61113" fill="#0070C0"/><path d="M17.1983 79 21.5733 51 32.7155 51 34.0012 45 10.0058 45C8.34891 45 7.00576 46.3431 7.00576 48 7.00576 49.6569 8.34891 51 10.0058 51L15.5008 51 11.1258 79Z" stroke="#FFFFFF" stroke-width="1.61113" fill="#0070C0"/><path d="M74.4383 51 78.8133 79 84.8858 79 80.5108 51 86.0058 51C87.6626 51 89.0058 49.6569 89.0058 48 89.0058 46.3431 87.6626 45 86.0058 45L61.1375 45 62.4232 51Z" stroke="#FFFFFF" stroke-width="1.61113" fill="#0070C0"/><path d="M11.0058 19 11.0058 36C11.0058 37.1045 11.9012 37.9999 13.0058 38L24.0058 38 24.0058 42 31.0058 42 31.0058 38 36.7304 38C38.4353 36.0985 40.8659 35.0085 43.4198 35L44.0058 35 44.0058 19C44.0057 17.8955 43.1103 17.0001 42.0058 17L13.0058 17C11.9012 17.0001 11.0058 17.8955 11.0058 19ZM15.0058 21 40.0058 21 40.0058 34 15.0058 34Z" stroke="#FFFFFF" stroke-width="1.61113" fill="#0070C0"/><path d="M61.0142 58.7427 57.5857 42.7427C56.9928 39.9763 54.548 38 51.7188 38L43.4198 38C40.5906 38 38.1458 39.9763 37.5529 42.7427L34.1244 58.7427C33.4318 61.982 35.4964 65.1695 38.7358 65.8621 38.7479 65.8646 38.7599 65.8672 38.772 65.8697L37.2273 79 41.2548 79 42.7843 66 52.3542 66 53.8836 79 57.9112 79 56.3665 65.8696C59.61 65.1972 61.6943 62.0226 61.0219 58.7791 61.0193 58.767 61.0168 58.7548 61.0142 58.7427Z" stroke="#FFFFFF" stroke-width="1.61113" fill="#0070C0"/></svg>