<svg viewBox="0 0 96 96" xmlns="http://www.w3.org/2000/svg" xmlns:xlink="http://www.w3.org/1999/xlink" id="Icons_Production" overflow="hidden"><path d="M69 66 69 47.823 45.175 60.177 45.175 47.823 21.352 60.177 18.7 24 11.646 24 9 60.177 9 84 87 84 87 66ZM26.646 77.823 16.058 77.823 16.058 69.882 26.646 69.882ZM44.293 77.823 33.705 77.823 33.705 69.882 44.293 69.882ZM61.94 77.823 51.352 77.823 51.352 69.882 61.94 69.882Z" stroke="#FFFFFF" stroke-width="2.66667" fill="#0070C0"/><path d="M31.2 14.487C30.472 15.1598 29.349 15.1598 28.621 14.487 27.0821 13.0463 25.0449 12.2578 22.937 12.287L22.194 12.302C17.3255 12.1748 13.2705 16.008 13.124 20.876L13.124 22 17.184 22 17.184 21.352C17.1418 19.1593 18.8579 17.334 21.049 17.241L21.6 17.2C23.267 16.9913 24.9411 17.5297 26.174 18.671L29.051 21.397C30.5237 22.7649 32.5194 23.4232 34.517 23.2 34.638 24.4428 35.2067 25.5993 36.117 26.454 38.5057 28.5735 42.1224 28.5008 44.424 26.287 44.7686 25.9601 45.0725 25.5928 45.329 25.193 47.9208 25.947 50.7181 25.2737 52.683 23.423 55.3744 21.0475 55.6305 16.9399 53.255 14.2484 53.141 14.1193 53.0219 13.9947 52.898 13.875 49.9944 11.2975 45.5973 11.3846 42.798 14.075 42.0633 14.7374 40.9467 14.7374 40.212 14.075 37.7867 11.8332 34.0453 11.8332 31.62 14.075Z" stroke="#FFFFFF" stroke-width="2.66667" fill="#0070C0"/></svg>