<svg viewBox="0 0 96 96" xmlns="http://www.w3.org/2000/svg" xmlns:xlink="http://www.w3.org/1999/xlink" id="Icons_ContinuousImprovement1_RTL" overflow="hidden"><style>
.MsftOfcThm_Background1_Fill_v2 {
 fill:#FFFFFF; 
}
</style>
<path d="M73.7 42.8C76.1 57 66.6 70.4 52.5 72.8 51.6 72.9 50.8 73.7 50.7 74.7L50.7 74.8C50.7 75.9 51.6 76.8 52.7 76.8 52.8 76.8 52.9 76.8 53 76.8 53.2 76.8 53.4 76.7 53.6 76.7 69.9 73.6 80.6 57.9 77.5 41.6L77.5 41.6 77.5 41.6 80.5 43.3 80.7 43.4C81.7 43.9 82.9 43.4 83.3 42.4 83.7 41.4 83.3 40.3 82.4 39.8L75.2 35.6 75.2 35.6C74.2 35 73 35.4 72.5 36.3L68.3 43.6C67.8 44.5 67.9 45.6 68.7 46.2L69 46.4C70 47 71.2 46.6 71.7 45.7L73.6 42.6 73.7 42.8Z" class="MsftOfcThm_Background1_Fill_v2" fill="#FFFFFF"/><path d="M34.7 77.5C33.8 78.2 33.7 79.5 34.4 80.3 35.1 81.1 36.2 81.2 37 80.7L44.3 76.5 44.3 76.5C45.3 76 45.6 74.7 45 73.8L41 66.5C40.5 65.6 39.4 65.2 38.4 65.6L38.2 65.7C37.2 66.2 36.9 67.5 37.5 68.4L39.2 71.6 39.2 71.6 39.2 71.6C39.1 71.6 39 71.6 39 71.6 25.5 66.6 18.7 51.6 23.7 38.1L23.8 37.9C24.1 36.8 23.4 35.7 22.4 35.5 21.4 35.3 20.3 35.8 20 36.8L19.9 37.2C14.2 52.8 22.4 70 38.1 75.5L38.1 75.5 38.1 75.5 35 77.3 34.7 77.5Z" class="MsftOfcThm_Background1_Fill_v2" fill="#FFFFFF"/><path d="M70.8 27.7C60.1 15.1 41.2 13.5 28.5 24.3L28.5 24.3 28.5 24.3 28.6 20.7C28.6 20.6 28.6 20.5 28.6 20.4 28.4 19.3 27.4 18.6 26.3 18.8 25.3 19 24.6 19.9 24.6 20.9L24.6 29.3C24.6 29.8 24.8 30.3 25.2 30.7L25.5 30.9C25.8 31.1 26.2 31.2 26.6 31.2 26.7 31.2 26.8 31.2 26.8 31.2L34.9 31.2C35.9 31.2 36.8 30.5 37 29.5 37 29.4 37 29.3 37 29.2 37 28.1 36.1 27.2 35 27.2L31.5 27.2 31.5 27.2C31.5 27.2 31.5 27.2 31.5 27.1 42.5 18.1 58.7 19.6 67.9 30.5L68.1 30.7C68.9 31.4 70.2 31.3 70.9 30.5 71.5 29.7 71.5 28.6 70.9 27.8L70.8 27.7Z" class="MsftOfcThm_Background1_Fill_v2" fill="#FFFFFF"/><path d="M41.5 43.2 48 47.1 62.3 38.4 55.8 34.5Z" class="MsftOfcThm_Background1_Fill_v2" fill="#FFFFFF"/><path d="M39.9 42.2 54.2 33.5 48 29.7 33.7 38.4Z" class="MsftOfcThm_Background1_Fill_v2" fill="#FFFFFF"/><path d="M62.3 40.5 48.9 48.6 48.9 63.9 62.3 55.8 62.3 41.9Z" class="MsftOfcThm_Background1_Fill_v2" fill="#FFFFFF"/><path d="M42.4 48 45.4 49.7 45.4 52.7 42.4 51 42.4 48ZM33.7 40.5 33.7 55.8 47.2 64 47.2 48.6 33.7 40.5Z" class="MsftOfcThm_Background1_Fill_v2" fill="#FFFFFF"/></svg>