<svg viewBox="0 0 96 96" xmlns="http://www.w3.org/2000/svg" xmlns:xlink="http://www.w3.org/1999/xlink" id="Icons_AddressBook_RTL" overflow="hidden"><rect x="72" y="11" width="6" height="74" stroke="#FFFFFF" stroke-width="0.872651" fill="#0070C0"/><path d="M17 15 17 81C17 83.2 18.8 85 21 85L68 85 68 11 21 11C18.8 11 17 12.8 17 15ZM43.3 46.7C39.1 46.7 35.7 43.3 35.7 39.1 35.7 34.9 39.1 31.5 43.3 31.5 47.5 31.5 50.9 34.9 50.9 39.1 50.9 43.4 47.5 46.7 43.3 46.7ZM28 56.4C28 55.2 28.6 54 29.5 53.3 31.8 51.6 34.3 50.4 37 49.7 39 49 41.2 48.7 43.3 48.7 45.4 48.8 47.5 49.1 49.6 49.7 52.3 50.4 54.8 51.7 57.1 53.3 58 54.1 58.6 55.2 58.6 56.4L58.6 64 28 64 28 56.4Z" stroke="#FFFFFF" stroke-width="0.872651" fill="#0070C0"/></svg>