<svg viewBox="0 0 96 96" xmlns="http://www.w3.org/2000/svg" xmlns:xlink="http://www.w3.org/1999/xlink" id="Icons_Juggler" overflow="hidden"><style>
.MsftOfcThm_Background1_Fill_v2 {
 fill:#FFFFFF; 
}
</style>
<path d="M39.69 36.439 30.19 39.239 24.532 31.388C23.6016 30.04 21.786 29.6431 20.378 30.48 18.9839 31.3753 18.5794 33.2312 19.4747 34.6254 19.5036 34.6704 19.5337 34.7146 19.565 34.758L26.565 44.471C27.3094 45.5039 28.6246 45.9545 29.846 45.595L40 42.6 40 89.83C39.9641 91.4686 41.2045 92.8546 42.837 93 44.4914 93.09 45.9055 91.8218 45.9956 90.1674 45.9986 90.1117 46.0001 90.0558 46 90L46 65 49 65 55.192 73.256 58.058 87.588C58.3383 88.9905 59.5698 90.0001 61 90 61.3051 89.9999 61.6085 89.9541 61.9 89.864 63.3884 89.3567 64.2592 87.8133 63.924 86.277L60.941 71.413C60.8536 70.9733 60.6687 70.5588 60.4 70.2L55 63 55 44.722 62.142 50.355C63.2583 51.2359 64.8397 51.2121 65.929 50.298L74.84 42.819C75.9794 41.8967 76.31 40.2987 75.63 39 75.0058 37.8663 73.7217 37.2645 72.451 37.51L72.194 36.731 72.062 36.063 69.744 36.515 69.877 37.188 70.009 39.04 63.941 44.132 56.485 38.251C56.2406 38.0578 55.9788 37.8878 55.703 37.743L55.003 37.375C52.6616 36.2673 50.109 35.6772 47.519 35.645 44.9942 35.5615 42.4689 35.7967 40.003 36.345Z" class="MsftOfcThm_Background1_Fill_v2" fill="#FFFFFF"/><circle cx="47.491" cy="27.363" r="6" class="MsftOfcThm_Background1_Fill_v2" fill="#FFFFFF"/><path d="M22.955 16.269 23.355 16.823 25.28 15.455 24.88 14.896 23.708 12.733C23.3025 12.0151 22.3917 11.7618 21.6738 12.1674 20.9558 12.5729 20.7026 13.4837 21.1081 14.2016 21.1601 14.2937 21.2218 14.38 21.292 14.459Z" class="MsftOfcThm_Background1_Fill_v2" fill="#FFFFFF"/><path d="M24.684 19.836C25.5001 22.1766 26.8918 24.2743 28.731 25.936L30.261 27.317C30.4605 27.4963 30.7578 27.513 30.976 27.357L32.76 26.083C32.9786 25.9271 33.0593 25.64 32.954 25.393L32.144 23.493C31.1692 21.2167 29.6376 19.2222 27.69 17.693L25.869 16.26 23.921 17.644Z" class="MsftOfcThm_Background1_Fill_v2" fill="#FFFFFF"/><path d="M44.133 11.251 46.333 10.141 46.973 9.911 46.181 7.686 45.535 7.918 43.135 8.456C42.3067 8.70729 41.8368 9.58021 42.083 10.41 42.4194 11.2057 43.3347 11.5812 44.133 11.251Z" class="MsftOfcThm_Background1_Fill_v2" fill="#FFFFFF"/><path d="M50.232 9.449C52.7053 9.30054 55.1015 8.5323 57.2 7.215L58.945 6.115C59.172 5.9725 59.2693 5.69133 59.179 5.439L58.438 3.374C58.3479 3.12149 58.0938 2.9661 57.828 3.001L55.784 3.264C53.3265 3.57829 50.9878 4.50689 48.984 5.964L47.113 7.334 47.913 9.586Z" class="MsftOfcThm_Background1_Fill_v2" fill="#FFFFFF"/><path d="M69.536 35.538 71.882 35.081 72.092 32.77C72.3139 30.3026 71.9116 27.8191 70.922 25.548L70.098 23.658C69.9905 23.4125 69.727 23.2745 69.464 23.326L67.313 23.751C67.0494 23.8023 66.8574 24.0306 66.852 24.299L66.807 26.359C66.754 28.8356 67.3249 31.2858 68.467 33.484Z" class="MsftOfcThm_Background1_Fill_v2" fill="#FFFFFF"/></svg>