<svg viewBox="0 0 96 96" xmlns="http://www.w3.org/2000/svg" xmlns:xlink="http://www.w3.org/1999/xlink" id="Icons_Aspiration" overflow="hidden"><style>
.MsftOfcThm_Background1_Fill_v2 {
 fill:#FFFFFF; 
}
</style>
<path d="M59.168 25.359C61.6039 25.208 63.4561 23.1109 63.3051 20.675 63.154 18.2391 61.0569 16.3869 58.6211 16.5379 56.1852 16.689 54.333 18.7861 54.484 21.2219 54.484 21.222 54.484 21.222 54.484 21.222 54.6351 23.6578 56.7322 25.51 59.168 25.359Z" class="MsftOfcThm_Background1_Fill_v2" fill="#FFFFFF"/><path d="M85 6.68 75 18 74.5 28.385 68.174 36.874C68.0217 36.7039 67.8389 36.5638 67.635 36.461L62.523 34 59.742 31.013 69.391 30.413C70.4345 30.3484 71.2281 29.45 71.1635 28.4065 71.0989 27.363 70.2005 26.5694 69.157 26.634L57.857 27.334 56.432 26.183C56.377 26.135 56.325 26.083 56.268 26.039 56.211 25.995 56.183 25.979 56.141 25.948L56.036 25.863 56.036 25.871C54.124 24.5447 51.5107 24.9301 50.063 26.752L43.9 34.516C43.7182 34.7457 43.5598 34.9929 43.427 35.254L42.847 36.384C42.7541 36.593 42.6902 36.8137 42.657 37.04L41.21 47.078 35.582 53.865C34.6917 54.9384 34.8401 56.5302 35.9135 57.4205 36.9869 58.3108 38.5787 58.1624 39.469 57.089L45.551 49.755C45.8483 49.397 46.0408 48.9637 46.107 48.503L47.078 41.764 53.331 46.021 52.785 54.745C52.7502 55.334 52.9248 55.9163 53.278 56.389L49 57 36 68 34 76 22 78 18 83 10 85 8 90 89 90 89 5ZM58.327 47.041 58.461 44.901C58.5186 44.0105 58.1 43.1562 57.361 42.656L51.753 38.838 56.4 32.985 60 36.844C60.1604 37.0162 60.3517 37.1566 60.564 37.258L64.216 39.017 60 40.6ZM85 60 80 62 75 58 67 59 61 53 63.35 43.615 70.007 41.11 78.419 29.821 78.884 20 85 13.023Z" class="MsftOfcThm_Background1_Fill_v2" fill="#FFFFFF"/></svg>