<svg viewBox="0 0 96 96" xmlns="http://www.w3.org/2000/svg" xmlns:xlink="http://www.w3.org/1999/xlink" id="Icons_Cube" overflow="hidden"><style>
.MsftOfcThm_Background1_Fill_v2 {
 fill:#FFFFFF; 
}
</style>
<g id="Icons"><path d="M40.733 86.185 86 75.259 86 25.539 53.054 9.85 10 19.244 10 69.637ZM52.327 16.15 73.865 26.406 56.429 30.314 41.581 33.642 21.562 22.862ZM16 66.053 16 26.682 38.145 38.607 38.145 77.978ZM80 70.535 44.145 79.19 44.145 39.217 59.729 35.723 80 31.18Z" class="MsftOfcThm_Background1_Fill_v2" fill="#FFFFFF"/><rect x="51.69" y="18.186" width="2" height="4" class="MsftOfcThm_Background1_Fill_v2" fill="#FFFFFF"/><rect x="51.69" y="39.186" width="2" height="4" class="MsftOfcThm_Background1_Fill_v2" fill="#FFFFFF"/><rect x="51.69" y="46.186" width="2" height="4" class="MsftOfcThm_Background1_Fill_v2" fill="#FFFFFF"/><rect x="51.69" y="25.186" width="2" height="4" class="MsftOfcThm_Background1_Fill_v2" fill="#FFFFFF"/><rect x="51.69" y="53.186" width="2" height="4" class="MsftOfcThm_Background1_Fill_v2" fill="#FFFFFF"/><rect x="67.517" y="64.345" width="2" height="4" class="MsftOfcThm_Background1_Fill_v2" fill="#FFFFFF" transform="matrix(0.412214 -0.911087 0.911087 0.412214 -20.173 101.421)"/><rect x="47.144" y="58.959" width="4" height="2" class="MsftOfcThm_Background1_Fill_v2" fill="#FFFFFF" transform="matrix(0.977075 -0.212894 0.212894 0.977075 -11.638 11.837)"/><rect x="19.788" y="64.928" width="4" height="2" class="MsftOfcThm_Background1_Fill_v2" fill="#FFFFFF" transform="matrix(0.977075 -0.212894 0.212894 0.977075 -13.536 6.15)"/><rect x="61.139" y="61.46" width="2" height="3.999" class="MsftOfcThm_Background1_Fill_v2" fill="#FFFFFF" transform="matrix(0.412103 -0.911137 0.911137 0.412103 -21.29 93.925)"/><rect x="73.895" y="67.23" width="2" height="4" class="MsftOfcThm_Background1_Fill_v2" fill="#FFFFFF" transform="matrix(0.412214 -0.911087 0.911087 0.412214 -19.053 108.928)"/><rect x="54.762" y="58.575" width="2" height="4" class="MsftOfcThm_Background1_Fill_v2" fill="#FFFFFF" transform="matrix(0.412103 -0.911137 0.911137 0.412103 -22.41 86.418)"/><rect x="26.627" y="63.436" width="4" height="2" class="MsftOfcThm_Background1_Fill_v2" fill="#FFFFFF" transform="matrix(0.977075 -0.212894 0.212894 0.977075 -13.062 7.572)"/><rect x="33.466" y="61.944" width="4" height="2" class="MsftOfcThm_Background1_Fill_v2" fill="#FFFFFF" transform="matrix(0.977075 -0.212894 0.212894 0.977075 -12.587 8.994)"/></g></svg>