<svg viewBox="0 0 96 96" xmlns="http://www.w3.org/2000/svg" xmlns:xlink="http://www.w3.org/1999/xlink" id="Icons_CommentLike" overflow="hidden"><path d="M78.6 17.005 17.4 17.005C15.5304 17.0245 14.0195 18.5354 14 20.405L14 61.717C13.9845 63.5792 15.4815 65.1015 17.3438 65.117 17.3625 65.1171 17.3813 65.1171 17.4 65.117L54.8 65.117 68.4 79.017 68.4 65.217 78.6 65.217C80.4696 65.1975 81.9805 63.6866 82 61.817L82 20.506C82.0239 18.6019 80.504 17.0368 78.6 17.005ZM40.716 48.525C40.7138 49.3058 40.0808 49.9379 39.3 49.939L34 49.939 34 35.089 39.3 35.089C40.0796 35.0901 40.7122 35.7204 40.716 36.5ZM61.573 41.807C61.5653 42.7947 60.8756 43.6457 59.911 43.858 60.3009 44.2533 60.5169 44.7878 60.511 45.343 60.5077 46.513 59.56 47.4607 58.39 47.464L58.178 47.464C58.5484 47.841 58.7522 48.3506 58.744 48.879 58.7402 50.0484 57.7934 50.9956 56.624 51L50.261 51C45.524 51 45.347 48.171 42.837 48.171L42.837 36.857C42.943 36.786 49.2 33.745 49.2 28.371 49.2 27.1996 50.1496 26.25 51.321 26.25 52.4924 26.25 53.442 27.1996 53.442 28.371 53.5193 30.6688 53.1596 32.9604 52.382 35.124 52.4108 35.6914 52.8739 36.1397 53.442 36.15L60.159 36.15C61.329 36.1533 62.2767 37.101 62.28 38.271 62.2908 39.1579 61.7366 39.9536 60.901 40.251 61.3324 40.6531 61.5761 41.2173 61.573 41.807Z" stroke="#FFFFFF" stroke-width="1.37335" fill="#0070C0"/></svg>