<svg viewBox="0 0 96 96" xmlns="http://www.w3.org/2000/svg" xmlns:xlink="http://www.w3.org/1999/xlink" id="Icons_UserNetwork" overflow="hidden"><path d="M85.39 36.7C83.6516 32.6081 78.9251 30.7002 74.8332 32.4386 71.5042 33.853 69.5272 37.314 70 40.9L59.26 45.39C57.3908 42.0975 54.128 39.8316 50.39 39.23L50.39 27.7C54.668 26.5954 57.2405 22.232 56.136 17.954 55.0314 13.6761 50.668 11.1035 46.39 12.2081 42.112 13.3126 39.5395 17.6761 40.644 21.954 41.3716 24.7719 43.5721 26.9724 46.39 27.7L46.39 39.22C42.6836 39.8199 39.4442 42.0566 37.57 45.31L26.79 40.8C27.6355 36.2666 24.6459 31.9061 20.1125 31.0606 15.579 30.2151 11.2186 33.2048 10.3731 37.7382 9.52758 42.2716 12.5172 46.632 17.0506 47.4775 20.0743 48.0415 23.1631 46.8974 25.09 44.5L36.14 49C35.4153 52.5003 36.2313 56.1433 38.38 59L29.79 67.7C25.9898 65.4462 21.0821 66.6998 18.8282 70.5 16.5744 74.3002 17.828 79.2079 21.6282 81.4618 25.4285 83.7156 30.3362 82.462 32.59 78.6618 34.0822 76.1458 34.0822 73.016 32.59 70.5L41.27 61.82C45.5509 64.7938 51.2291 64.7938 55.51 61.82L64.19 70.5C62.3547 73.6677 62.8446 77.6687 65.39 80.3 68.4941 83.4442 73.5593 83.4767 76.7035 80.3726 79.8477 77.2686 79.8802 72.2034 76.7761 69.0592 74.1937 66.4433 70.161 65.9239 67 67.8L58.36 59.07C60.0022 56.907 60.8908 54.2657 60.89 51.55 60.8914 50.734 60.811 49.9199 60.65 49.12L71.65 44.6C73.8317 47.4972 77.6896 48.5643 81.05 47.2 85.108 45.4593 87.0348 40.7978 85.39 36.7ZM48.45 44C50.383 44 51.95 45.567 51.95 47.5 51.95 49.433 50.383 51 48.45 51 46.517 51 44.95 49.433 44.95 47.5 44.95 45.567 46.517 44 48.45 44ZM55.45 58 41.45 58 41.45 55.28C41.4633 54.7324 41.7199 54.2192 42.15 53.88 43.1878 53.1346 44.3441 52.57 45.57 52.21 46.5102 51.9401 47.4819 51.7955 48.46 51.78 49.439 51.7829 50.4125 51.9278 51.35 52.21 52.5903 52.5321 53.7533 53.1 54.77 53.88 55.2001 54.2192 55.4567 54.7324 55.47 55.28Z" stroke="#FFFFFF" stroke-width="1.37335" fill="#0070C0"/></svg>